{
  "accessors": [
    {
      "bufferView": 2,
      "componentType": 5126,
      "count": 36865,
      "max": [
        562.9921264648438,
        83.41512298583984,
        1468.925048828125
      ],
      "min": [
        -572.44091796875,
        -6592.2060546875,
        -291.4024963378906
      ],
      "type": "VEC3"
    },
    {
      "bufferView": 2,
      "byteOffset": 442380,
      "componentType": 5126,
      "count": 36865,
      "max": [
        1.0,
        1.0,
        1.0
      ],
      "min": [
        -1.0,
        -1.0,
        -1.0
      ],
      "type": "VEC3"
    },
    {
      "bufferView": 0,
      "componentType": 5125,
      "count": 106956,
      "type": "SCALAR"
    },
    {
      "bufferView": 2,
      "byteOffset": 884760,
      "componentType": 5126,
      "count": 62533,
      "max": [
        562.9921264648438,
        475.1507873535156,
        1468.925048828125
      ],
      "min": [
        -572.44091796875,
        -6545.0859375,
        -291.4024963378906
      ],
      "type": "VEC3"
    },
    {
      "bufferView": 2,
      "byteOffset": 1635156,
      "componentType": 5126,
      "count": 62533,
      "max": [
        1.0,
        1.0,
        1.0
      ],
      "min": [
        -1.0,
        -1.0,
        -1.0
      ],
      "type": "VEC3"
    },
    {
      "bufferView": 0,
      "byteOffset": 427824,
      "componentType": 5125,
      "count": 195777,
      "type": "SCALAR"
    },
    {
      "bufferView": 2,
      "byteOffset": 2385552,
      "componentType": 5126,
      "count": 176,
      "max": [
        555.03271484375,
        -3483.02099609375,
        636.5062255859375
      ],
      "min": [
        -564.4815063476563,
        -4382.9189453125,
        630.3782958984375
      ],
      "type": "VEC3"
    },
    {
      "bufferView": 2,
      "byteOffset": 2387664,
      "componentType": 5126,
      "count": 176,
      "max": [
        0.969606876373291,
        -0.24466800689697266,
        0.0
      ],
      "min": [
        -0.969606876373291,
        -0.99339759349823,
        0.0
      ],
      "type": "VEC3"
    },
    {
      "bufferView": 0,
      "byteOffset": 1210932,
      "componentType": 5125,
      "count": 480,
      "type": "SCALAR"
    },
    {
      "bufferView": 2,
      "byteOffset": 2389776,
      "componentType": 5126,
      "count": 5959,
      "max": [
        499.21258544921875,
        420.676513671875,
        7.500610828399658
      ],
      "min": [
        -508.6614074707031,
        -6508.57421875,
        -291.4024963378906
      ],
      "type": "VEC3"
    },
    {
      "bufferView": 2,
      "byteOffset": 2461284,
      "componentType": 5126,
      "count": 5959,
      "max": [
        1.0,
        1.0,
        1.0
      ],
      "min": [
        -1.0,
        -1.0,
        -1.0
      ],
      "type": "VEC3"
    },
    {
      "bufferView": 0,
      "byteOffset": 1212852,
      "componentType": 5125,
      "count": 25002,
      "type": "SCALAR"
    },
    {
      "bufferView": 2,
      "byteOffset": 2532792,
      "componentType": 5126,
      "count": 5776,
      "max": [
        507.7367858886719,
        -3459.451904296875,
        600.95068359375
      ],
      "min": [
        -517.1856079101563,
        -4369.14013671875,
        579.03369140625
      ],
      "type": "VEC3"
    },
    {
      "bufferView": 0,
      "byteOffset": 1312860,
      "componentType": 5125,
      "count": 28152,
      "type": "SCALAR"
    },
    {
      "bufferView": 2,
      "byteOffset": 2602104,
      "componentType": 5126,
      "count": 13316,
      "max": [
        507.7367858886719,
        -3451.383056640625,
        600.95068359375
      ],
      "min": [
        -517.1856079101563,
        -4369.14013671875,
        579.03369140625
      ],
      "type": "VEC3"
    },
    {
      "bufferView": 2,
      "byteOffset": 2761896,
      "componentType": 5126,
      "count": 13316,
      "max": [
        1.0,
        1.0,
        1.0
      ],
      "min": [
        -1.0,
        -1.0,
        -1.0
      ],
      "type": "VEC3"
    },
    {
      "bufferView": 0,
      "byteOffset": 1425468,
      "componentType": 5125,
      "count": 69240,
      "type": "SCALAR"
    },
    {
      "bufferView": 2,
      "byteOffset": 2921688,
      "componentType": 5126,
      "count": 1334,
      "max": [
        558.2677001953125,
        475.1507873535156,
        992.8513793945313
      ],
      "min": [
        -567.7164916992188,
        -6586.0791015625,
        240.83689880371094
      ],
      "type": "VEC3"
    },
    {
      "bufferView": 2,
      "byteOffset": 2937696,
      "componentType": 5126,
      "count": 1334,
      "max": [
        1.2087710389921402e-12,
        9.324247950625534e-15,
        1.0
      ],
      "min": [
        -1.2087710389921402e-12,
        -4.817200241133412e-13,
        1.0
      ],
      "type": "VEC3"
    },
    {
      "bufferView": 0,
      "byteOffset": 1702428,
      "componentType": 5125,
      "count": 3705,
      "type": "SCALAR"
    },
    {
      "bufferView": 2,
      "byteOffset": 2953704,
      "componentType": 5126,
      "count": 731,
      "max": [
        301.0978088378906,
        442.4122009277344,
        1478.529052734375
      ],
      "min": [
        -310.5466003417969,
        -4843.31005859375,
        359.3409118652344
      ],
      "type": "VEC3"
    },
    {
      "bufferView": 2,
      "byteOffset": 2962476,
      "componentType": 5126,
      "count": 731,
      "max": [
        1.0,
        1.0,
        1.0
      ],
      "min": [
        -1.0,
        -1.0,
        -1.0
      ],
      "type": "VEC3"
    },
    {
      "bufferView": 0,
      "byteOffset": 1717248,
      "componentType": 5125,
      "count": 1677,
      "type": "SCALAR"
    },
    {
      "bufferView": 2,
      "byteOffset": 2971248,
      "componentType": 5126,
      "count": 240,
      "max": [
        557.0866088867188,
        -3242.365966796875,
        689.9202270507813
      ],
      "min": [
        -566.535400390625,
        -4296.494140625,
        636.5062255859375
      ],
      "type": "VEC3"
    },
    {
      "bufferView": 2,
      "byteOffset": 2974128,
      "componentType": 5126,
      "count": 240,
      "max": [
        1.0,
        1.0,
        1.0
      ],
      "min": [
        -1.0,
        -1.0,
        0.0
      ],
      "type": "VEC3"
    },
    {
      "bufferView": 0,
      "byteOffset": 1723956,
      "componentType": 5125,
      "count": 432,
      "type": "SCALAR"
    },
    {
      "bufferView": 2,
      "byteOffset": 2977008,
      "componentType": 5126,
      "count": 2756,
      "max": [
        565.5922241210938,
        -2833.257080078125,
        706.568603515625
      ],
      "min": [
        -575.041015625,
        -4382.52783203125,
        628.0977172851563
      ],
      "type": "VEC3"
    },
    {
      "bufferView": 0,
      "byteOffset": 1725684,
      "componentType": 5125,
      "count": 9712,
      "type": "SCALAR"
    },
    {
      "bufferView": 2,
      "byteOffset": 3010080,
      "componentType": 5126,
      "count": 9260,
      "max": [
        565.5922241210938,
        -2554.85009765625,
        706.568603515625
      ],
      "min": [
        -575.041015625,
        -4382.96923828125,
        628.0977172851563
      ],
      "type": "VEC3"
    },
    {
      "bufferView": 2,
      "byteOffset": 3121200,
      "componentType": 5126,
      "count": 9260,
      "max": [
        1.0,
        1.0,
        1.0
      ],
      "min": [
        -1.0,
        -1.0,
        -1.0
      ],
      "type": "VEC3"
    },
    {
      "bufferView": 0,
      "byteOffset": 1764532,
      "componentType": 5125,
      "count": 41502,
      "type": "SCALAR"
    },
    {
      "bufferView": 2,
      "byteOffset": 3232320,
      "componentType": 5126,
      "count": 29600,
      "max": [
        558.2677001953125,
        -230.55020141601563,
        1319.001953125
      ],
      "min": [
        -567.7164916992188,
        -6238.541015625,
        158.3845977783203
      ],
      "type": "VEC3"
    },
    {
      "bufferView": 2,
      "byteOffset": 3587520,
      "componentType": 5126,
      "count": 29600,
      "max": [
        1.0,
        1.0,
        1.0
      ],
      "min": [
        -1.0,
        -1.0,
        -1.0
      ],
      "type": "VEC3"
    },
    {
      "bufferView": 0,
      "byteOffset": 1930540,
      "componentType": 5125,
      "count": 83328,
      "type": "SCALAR"
    },
    {
      "bufferView": 2,
      "byteOffset": 3942720,
      "componentType": 5126,
      "count": 61368,
      "max": [
        562.9921264648438,
        583.4047241210938,
        1108.2149658203125
      ],
      "min": [
        -572.44091796875,
        -6592.2060546875,
        -2.8421709430404007e-13
      ],
      "type": "VEC3"
    },
    {
      "bufferView": 2,
      "byteOffset": 4679136,
      "componentType": 5126,
      "count": 61368,
      "max": [
        1.0,
        1.0,
        1.0
      ],
      "min": [
        -1.0,
        -1.0,
        -1.0
      ],
      "type": "VEC3"
    },
    {
      "bufferView": 0,
      "byteOffset": 2263852,
      "componentType": 5125,
      "count": 177630,
      "type": "SCALAR"
    },
    {
      "bufferView": 2,
      "byteOffset": 5415552,
      "componentType": 5126,
      "count": 1536,
      "max": [
        447.00030517578125,
        282.9757995605469,
        378.6694030761719
      ],
      "min": [
        -456.4491882324219,
        -183.4344940185547,
        361.1448059082031
      ],
      "type": "VEC3"
    },
    {
      "bufferView": 0,
      "byteOffset": 2974372,
      "componentType": 5125,
      "count": 1536,
      "type": "SCALAR"
    },
    {
      "bufferView": 2,
      "byteOffset": 5433984,
      "componentType": 5126,
      "count": 9512,
      "max": [
        449.5144958496094,
        289.8785095214844,
        417.6777038574219
      ],
      "min": [
        -458.9634094238281,
        -190.33729553222656,
        359.3409118652344
      ],
      "type": "VEC3"
    },
    {
      "bufferView": 2,
      "byteOffset": 5548128,
      "componentType": 5126,
      "count": 9512,
      "max": [
        1.0,
        1.0,
        1.0
      ],
      "min": [
        -1.0,
        -1.0,
        -1.0
      ],
      "type": "VEC3"
    },
    {
      "bufferView": 0,
      "byteOffset": 2980516,
      "componentType": 5125,
      "count": 29238,
      "type": "SCALAR"
    },
    {
      "bufferView": 2,
      "byteOffset": 5662272,
      "componentType": 5126,
      "count": 3456,
      "max": [
        449.5144958496094,
        289.8785095214844,
        378.6694030761719
      ],
      "min": [
        -458.9634094238281,
        -190.33729553222656,
        359.3409118652344
      ],
      "type": "VEC3"
    },
    {
      "bufferView": 2,
      "byteOffset": 5703744,
      "componentType": 5126,
      "count": 3456,
      "max": [
        1.0,
        0.999830424785614,
        1.0
      ],
      "min": [
        -1.0,
        -0.999830424785614,
        -1.0
      ],
      "type": "VEC3"
    },
    {
      "bufferView": 0,
      "byteOffset": 3097468,
      "componentType": 5125,
      "count": 10560,
      "type": "SCALAR"
    },
    {
      "bufferView": 2,
      "byteOffset": 5745216,
      "componentType": 5126,
      "count": 482,
      "max": [
        96.73761749267578,
        -1679.9139404296875,
        1478.529052734375
      ],
      "min": [
        -106.1864013671875,
        -5707.52099609375,
        670.342529296875
      ],
      "type": "VEC3"
    },
    {
      "bufferView": 2,
      "byteOffset": 5751000,
      "componentType": 5126,
      "count": 482,
      "max": [
        1.0,
        1.0,
        1.0
      ],
      "min": [
        -1.0,
        -1.0,
        -1.0
      ],
      "type": "VEC3"
    },
    {
      "bufferView": 0,
      "byteOffset": 3139708,
      "componentType": 5125,
      "count": 1134,
      "type": "SCALAR"
    },
    {
      "bufferView": 2,
      "byteOffset": 5756784,
      "componentType": 5126,
      "count": 402,
      "max": [
        447.00030517578125,
        282.9757995605469,
        378.6694030761719
      ],
      "min": [
        -456.4491882324219,
        -183.4344940185547,
        374.24920654296875
      ],
      "type": "VEC3"
    },
    {
      "bufferView": 2,
      "byteOffset": 5761608,
      "componentType": 5126,
      "count": 402,
      "max": [
        0.0,
        0.0,
        1.0
      ],
      "min": [
        0.0,
        0.0,
        1.0
      ],
      "type": "VEC3"
    },
    {
      "bufferView": 0,
      "byteOffset": 3144244,
      "componentType": 5125,
      "count": 1086,
      "type": "SCALAR"
    },
    {
      "bufferView": 2,
      "byteOffset": 5766432,
      "componentType": 5126,
      "count": 302,
      "max": [
        484.45001220703125,
        -370.8326110839844,
        1027.197021484375
      ],
      "min": [
        -493.8988952636719,
        -2790.2880859375,
        810.0473022460938
      ],
      "type": "VEC3"
    },
    {
      "bufferView": 2,
      "byteOffset": 5770056,
      "componentType": 5126,
      "count": 302,
      "max": [
        0.9960079193115234,
        0.9964308142662048,
        0.11095929890871048
      ],
      "min": [
        -0.9960079193115234,
        -0.9964308142662048,
        0.039961520582437515
      ],
      "type": "VEC3"
    },
    {
      "bufferView": 0,
      "byteOffset": 3148588,
      "componentType": 5125,
      "count": 906,
      "type": "SCALAR"
    },
    {
      "bufferView": 2,
      "byteOffset": 5773680,
      "componentType": 5126,
      "count": 438,
      "max": [
        484.45001220703125,
        -370.8326110839844,
        1024.614013671875
      ],
      "min": [
        -493.8988952636719,
        -2790.2880859375,
        787.9373168945313
      ],
      "type": "VEC3"
    },
    {
      "bufferView": 0,
      "byteOffset": 3152212,
      "componentType": 5125,
      "count": 888,
      "type": "SCALAR"
    },
    {
      "bufferView": 2,
      "byteOffset": 5778936,
      "componentType": 5126,
      "count": 3242,
      "max": [
        484.45001220703125,
        -370.8326110839844,
        1046.6180419921875
      ],
      "min": [
        -493.8988952636719,
        -2790.2880859375,
        714.9744262695313
      ],
      "type": "VEC3"
    },
    {
      "bufferView": 2,
      "byteOffset": 5817840,
      "componentType": 5126,
      "count": 3242,
      "max": [
        1.0,
        1.0,
        1.0
      ],
      "min": [
        -1.0,
        -1.0,
        -1.0
      ],
      "type": "VEC3"
    },
    {
      "bufferView": 0,
      "byteOffset": 3155764,
      "componentType": 5125,
      "count": 14568,
      "type": "SCALAR"
    },
    {
      "bufferView": 2,
      "byteOffset": 5856744,
      "componentType": 5126,
      "count": 8664,
      "max": [
        558.2677001953125,
        -267.77520751953125,
        1040.094970703125
      ],
      "min": [
        -567.7164916992188,
        -6540.24609375,
        359.2961120605469
      ],
      "type": "VEC3"
    },
    {
      "bufferView": 2,
      "byteOffset": 5960712,
      "componentType": 5126,
      "count": 8664,
      "max": [
        1.0,
        1.0,
        1.0
      ],
      "min": [
        -1.0,
        -1.0,
        -0.5152634382247925
      ],
      "type": "VEC3"
    },
    {
      "bufferView": 1,
      "componentType": 5126,
      "count": 8664,
      "max": [
        88.99681091308594,
        13.024669647216797
      ],
      "min": [
        -137.05599975585938,
        -42.01546096801758
      ],
      "type": "VEC2"
    },
    {
      "bufferView": 0,
      "byteOffset": 3214036,
      "componentType": 5125,
      "count": 18402,
      "type": "SCALAR"
    },
    {
      "bufferView": 2,
      "byteOffset": 6064680,
      "componentType": 5126,
      "count": 2,
      "max": [
        166.92909240722656,
        -650.5657958984375,
        714.9744262695313
      ],
      "min": [
        -4.724409103393555,
        -650.5657958984375,
        714.9744262695313
      ],
      "type": "VEC3"
    },
    {
      "bufferView": 0,
      "byteOffset": 3287644,
      "componentType": 5125,
      "count": 2,
      "type": "SCALAR"
    },
    {
      "bufferView": 2,
      "byteOffset": 6064704,
      "componentType": 5126,
      "count": 1644,
      "max": [
        499.21258544921875,
        -531.2744750976563,
        880.3286743164063
      ],
      "min": [
        -508.6614074707031,
        -6565.85009765625,
        359.26239013671875
      ],
      "type": "VEC3"
    },
    {
      "bufferView": 2,
      "byteOffset": 6084432,
      "componentType": 5126,
      "count": 1644,
      "max": [
        0.00015561359759885818,
        2.0109810705548625e-08,
        1.0
      ],
      "min": [
        -0.00015561359759885818,
        -0.00015147139492910355,
        1.0
      ],
      "type": "VEC3"
    },
    {
      "bufferView": 1,
      "byteOffset": 69312,
      "componentType": 5126,
      "count": 1644,
      "max": [
        4.317584991455078,
        -11.068220138549805
      ],
      "min": [
        -4.160105228424072,
        -136.7884979248047
      ],
      "type": "VEC2"
    },
    {
      "bufferView": 0,
      "byteOffset": 3287652,
      "componentType": 5125,
      "count": 4020,
      "type": "SCALAR"
    },
    {
      "bufferView": 2,
      "byteOffset": 6104160,
      "componentType": 5126,
      "count": 3920,
      "max": [
        361.41729736328125,
        -1429.6400146484375,
        1189.6490478515625
      ],
      "min": [
        -370.8660888671875,
        -6230.60498046875,
        395.1228942871094
      ],
      "type": "VEC3"
    },
    {
      "bufferView": 2,
      "byteOffset": 6151200,
      "componentType": 5126,
      "count": 3920,
      "max": [
        1.0,
        0.8874486088752747,
        1.0
      ],
      "min": [
        -1.0,
        -1.0,
        -0.824486494064331
      ],
      "type": "VEC3"
    },
    {
      "bufferView": 0,
      "byteOffset": 3303732,
      "componentType": 5125,
      "count": 10833,
      "type": "SCALAR"
    },
    {
      "bufferView": 2,
      "byteOffset": 6198240,
      "componentType": 5126,
      "count": 118,
      "max": [
        498.5716857910156,
        -270.447998046875,
        762.218505859375
      ],
      "min": [
        -508.0205078125,
        -6529.97412109375,
        401.92718505859375
      ],
      "type": "VEC3"
    },
    {
      "bufferView": 0,
      "byteOffset": 3347064,
      "componentType": 5125,
      "count": 128,
      "type": "SCALAR"
    },
    {
      "bufferView": 2,
      "byteOffset": 6199656,
      "componentType": 5126,
      "count": 8,
      "max": [
        361.41729736328125,
        -3598.991943359375,
        738.5964965820313
      ],
      "min": [
        -370.8660888671875,
        -3610.802978515625,
        730.722412109375
      ],
      "type": "VEC3"
    },
    {
      "bufferView": 0,
      "byteOffset": 3347576,
      "componentType": 5125,
      "count": 8,
      "type": "SCALAR"
    },
    {
      "bufferView": 2,
      "byteOffset": 6199752,
      "componentType": 5126,
      "count": 856,
      "max": [
        558.2677001953125,
        -274.8652038574219,
        820.6072998046875
      ],
      "min": [
        -567.7164916992188,
        -5693.6220703125,
        600.5408935546875
      ],
      "type": "VEC3"
    },
    {
      "bufferView": 2,
      "byteOffset": 6210024,
      "componentType": 5126,
      "count": 856,
      "max": [
        1.0,
        0.6869991421699524,
        0.3408694863319397
      ],
      "min": [
        -1.0,
        -0.9401106238365173,
        -3.1676649693036796e-13
      ],
      "type": "VEC3"
    },
    {
      "bufferView": 0,
      "byteOffset": 3347608,
      "componentType": 5125,
      "count": 1464,
      "type": "SCALAR"
    },
    {
      "bufferView": 2,
      "byteOffset": 6220296,
      "componentType": 5126,
      "count": 352,
      "max": [
        535.0927124023438,
        -292.3927917480469,
        1319.001953125
      ],
      "min": [
        -544.5416259765625,
        -4327.9521484375,
        651.5993041992188
      ],
      "type": "VEC3"
    },
    {
      "bufferView": 0,
      "byteOffset": 3353464,
      "componentType": 5125,
      "count": 392,
      "type": "SCALAR"
    },
    {
      "bufferView": 2,
      "byteOffset": 6224520,
      "componentType": 5126,
      "count": 76,
      "max": [
        96.73761749267578,
        -5277.63818359375,
        759.6063232421875
      ],
      "min": [
        -106.1864013671875,
        -5693.908203125,
        714.9744262695313
      ],
      "type": "VEC3"
    },
    {
      "bufferView": 0,
      "byteOffset": 3355032,
      "componentType": 5125,
      "count": 152,
      "type": "SCALAR"
    },
    {
      "bufferView": 2,
      "byteOffset": 6225432,
      "componentType": 5126,
      "count": 200,
      "max": [
        368.52099609375,
        233.07269287109375,
        407.047607421875
      ],
      "min": [
        -377.96978759765625,
        -94.30191802978516,
        384.5552062988281
      ],
      "type": "VEC3"
    },
    {
      "bufferView": 2,
      "byteOffset": 6227832,
      "componentType": 5126,
      "count": 200,
      "max": [
        1.0349220147531923e-08,
        0.991388201713562,
        0.9915012121200562
      ],
      "min": [
        -1.0349220147531923e-08,
        -0.991388201713562,
        -0.9915012121200562
      ],
      "type": "VEC3"
    },
    {
      "bufferView": 1,
      "byteOffset": 82464,
      "componentType": 5126,
      "count": 200,
      "max": [
        88.29257202148438,
        -32.68840026855469
      ],
      "min": [
        62.4675407409668,
        -33.91865158081055
      ],
      "type": "VEC2"
    },
    {
      "bufferView": 0,
      "byteOffset": 3355640,
      "componentType": 5125,
      "count": 576,
      "type": "SCALAR"
    },
    {
      "bufferView": 2,
      "byteOffset": 6230232,
      "componentType": 5126,
      "count": 560,
      "max": [
        376.34130859375,
        261.5054016113281,
        407.59100341796875
      ],
      "min": [
        -385.79010009765625,
        -73.5025863647461,
        402.4468078613281
      ],
      "type": "VEC3"
    },
    {
      "bufferView": 2,
      "byteOffset": 6236952,
      "componentType": 5126,
      "count": 560,
      "max": [
        1.0,
        1.0,
        1.0
      ],
      "min": [
        -1.0,
        -1.0,
        -1.0
      ],
      "type": "VEC3"
    },
    {
      "bufferView": 0,
      "byteOffset": 3357944,
      "componentType": 5125,
      "count": 1704,
      "type": "SCALAR"
    },
    {
      "bufferView": 2,
      "byteOffset": 6243672,
      "componentType": 5126,
      "count": 32,
      "max": [
        557.0866088867188,
        -3242.365966796875,
        636.5062255859375
      ],
      "min": [
        -566.535400390625,
        -4296.494140625,
        636.5062255859375
      ],
      "type": "VEC3"
    },
    {
      "bufferView": 2,
      "byteOffset": 6244056,
      "componentType": 5126,
      "count": 32,
      "max": [
        0.0,
        0.0,
        1.0
      ],
      "min": [
        0.0,
        0.0,
        1.0
      ],
      "type": "VEC3"
    },
    {
      "bufferView": 0,
      "byteOffset": 3364760,
      "componentType": 5125,
      "count": 48,
      "type": "SCALAR"
    },
    {
      "bufferView": 2,
      "byteOffset": 6244440,
      "componentType": 5126,
      "count": 948,
      "max": [
        565.5922241210938,
        -2554.85009765625,
        691.2283935546875
      ],
      "min": [
        -575.041015625,
        -4027.22802734375,
        582.5042724609375
      ],
      "type": "VEC3"
    },
    {
      "bufferView": 0,
      "byteOffset": 3364952,
      "componentType": 5125,
      "count": 2624,
      "type": "SCALAR"
    },
    {
      "bufferView": 2,
      "byteOffset": 6255816,
      "componentType": 5126,
      "count": 404,
      "max": [
        565.5922241210938,
        -2563.7958984375,
        684.0114135742188
      ],
      "min": [
        -575.041015625,
        -4009.72607421875,
        628.0977172851563
      ],
      "type": "VEC3"
    },
    {
      "bufferView": 2,
      "byteOffset": 6260664,
      "componentType": 5126,
      "count": 404,
      "max": [
        1.0,
        0.7648081183433533,
        0.9540590047836304
      ],
      "min": [
        -1.0,
        -0.9862954020500183,
        -1.39891099599403e-14
      ],
      "type": "VEC3"
    },
    {
      "bufferView": 0,
      "byteOffset": 3375448,
      "componentType": 5125,
      "count": 636,
      "type": "SCALAR"
    },
    {
      "bufferView": 2,
      "byteOffset": 6265512,
      "componentType": 5126,
      "count": 2902,
      "max": [
        565.5922241210938,
        -2554.85009765625,
        691.2283935546875
      ],
      "min": [
        -575.041015625,
        -4027.22802734375,
        582.5042724609375
      ],
      "type": "VEC3"
    },
    {
      "bufferView": 2,
      "byteOffset": 6300336,
      "componentType": 5126,
      "count": 2902,
      "max": [
        1.0,
        1.0,
        1.0
      ],
      "min": [
        -1.0,
        -1.0,
        -1.0
      ],
      "type": "VEC3"
    },
    {
      "bufferView": 0,
      "byteOffset": 3377992,
      "componentType": 5125,
      "count": 7194,
      "type": "SCALAR"
    },
    {
      "bufferView": 2,
      "byteOffset": 6335160,
      "componentType": 5126,
      "count": 48,
      "max": [
        565.5922241210938,
        -3001.02294921875,
        628.0977172851563
      ],
      "min": [
        -575.041015625,
        -4027.22802734375,
        628.0977172851563
      ],
      "type": "VEC3"
    },
    {
      "bufferView": 2,
      "byteOffset": 6335736,
      "componentType": 5126,
      "count": 48,
      "max": [
        1.0740199894265605e-15,
        -6.923538043606455e-15,
        1.0
      ],
      "min": [
        -1.0740199894265605e-15,
        -7.094864856748741e-15,
        1.0
      ],
      "type": "VEC3"
    },
    {
      "bufferView": 0,
      "byteOffset": 3406768,
      "componentType": 5125,
      "count": 120,
      "type": "SCALAR"
    },
    {
      "bufferView": 2,
      "byteOffset": 6336312,
      "componentType": 5126,
      "count": 200,
      "max": [
        565.5922241210938,
        -2611.716064453125,
        622.1231079101563
      ],
      "min": [
        -575.041015625,
        -4005.48291015625,
        599.0673217773438
      ],
      "type": "VEC3"
    },
    {
      "bufferView": 2,
      "byteOffset": 6338712,
      "componentType": 5126,
      "count": 200,
      "max": [
        1.0,
        8.409605680554343e-15,
        5.069351920660922e-14
      ],
      "min": [
        -1.0,
        -8.604206417988335e-15,
        -7.417591185916207e-15
      ],
      "type": "VEC3"
    },
    {
      "bufferView": 0,
      "byteOffset": 3407248,
      "componentType": 5125,
      "count": 744,
      "type": "SCALAR"
    },
    {
      "bufferView": 2,
      "byteOffset": 6341112,
      "componentType": 5126,
      "count": 22,
      "max": [
        503.93701171875,
        -3523.97802734375,
        477.84478759765625
      ],
      "min": [
        -513.3858032226563,
        -4417.23583984375,
        477.84478759765625
      ],
      "type": "VEC3"
    },
    {
      "bufferView": 2,
      "byteOffset": 6341376,
      "componentType": 5126,
      "count": 22,
      "max": [
        8.513106224566122e-16,
        1.144758040192372e-15,
        1.0
      ],
      "min": [
        -8.513106224566122e-16,
        0.0,
        1.0
      ],
      "type": "VEC3"
    },
    {
      "bufferView": 1,
      "byteOffset": 84064,
      "componentType": 5126,
      "count": 22,
      "max": [
        -6.430446147918701,
        -124.44380187988281
      ],
      "min": [
        -6.561679840087891,
        -124.77189636230469
      ],
      "type": "VEC2"
    },
    {
      "bufferView": 0,
      "byteOffset": 3410224,
      "componentType": 5125,
      "count": 42,
      "type": "SCALAR"
    },
    {
      "bufferView": 2,
      "byteOffset": 6341640,
      "componentType": 5126,
      "count": 48,
      "max": [
        558.2677001953125,
        -303.994384765625,
        596.4096069335938
      ],
      "min": [
        -567.7164916992188,
        -650.5657958984375,
        596.4096069335938
      ],
      "type": "VEC3"
    },
    {
      "bufferView": 2,
      "byteOffset": 6342216,
      "componentType": 5126,
      "count": 48,
      "max": [
        0.0,
        0.0,
        1.0
      ],
      "min": [
        0.0,
        0.0,
        1.0
      ],
      "type": "VEC3"
    },
    {
      "bufferView": 1,
      "byteOffset": 84240,
      "componentType": 5126,
      "count": 48,
      "max": [
        46.522308349609375,
        -25.332870483398438
      ],
      "min": [
        -42.388450622558594,
        -54.21382141113281
      ],
      "type": "VEC2"
    },
    {
      "bufferView": 0,
      "byteOffset": 3410392,
      "componentType": 5125,
      "count": 132,
      "type": "SCALAR"
    },
    {
      "bufferView": 2,
      "byteOffset": 6342792,
      "componentType": 5126,
      "count": 1696,
      "max": [
        219.23959350585938,
        -6296.0078125,
        -53.192630767822266
      ],
      "min": [
        -228.6884002685547,
        -6360.32177734375,
        -262.79180908203125
      ],
      "type": "VEC3"
    },
    {
      "bufferView": 0,
      "byteOffset": 3410920,
      "componentType": 5125,
      "count": 7188,
      "type": "SCALAR"
    },
    {
      "bufferView": 2,
      "byteOffset": 6363144,
      "componentType": 5126,
      "count": 13194,
      "max": [
        219.23959350585938,
        -6296.0078125,
        -53.192630767822266
      ],
      "min": [
        -228.6884002685547,
        -6360.32177734375,
        -262.79180908203125
      ],
      "type": "VEC3"
    },
    {
      "bufferView": 2,
      "byteOffset": 6521472,
      "componentType": 5126,
      "count": 13194,
      "max": [
        1.0,
        1.0,
        1.0
      ],
      "min": [
        -1.0,
        -1.0,
        -1.0
      ],
      "type": "VEC3"
    },
    {
      "bufferView": 1,
      "byteOffset": 84624,
      "componentType": 5126,
      "count": 13194,
      "max": [
        0.0008107955218292773,
        0.0012739970115944743
      ],
      "min": [
        -0.0008148861234076321,
        -0.0011208360083401203
      ],
      "type": "VEC2"
    },
    {
      "bufferView": 0,
      "byteOffset": 3439672,
      "componentType": 5125,
      "count": 16632,
      "type": "SCALAR"
    },
    {
      "bufferView": 2,
      "byteOffset": 6679800,
      "componentType": 5126,
      "count": 1372,
      "max": [
        414.79119873046875,
        -4950.11279296875,
        758.281494140625
      ],
      "min": [
        -424.239990234375,
        -6471.72021484375,
        359.3409118652344
      ],
      "type": "VEC3"
    },
    {
      "bufferView": 2,
      "byteOffset": 6696264,
      "componentType": 5126,
      "count": 1372,
      "max": [
        1.0,
        1.0,
        1.0
      ],
      "min": [
        -1.0,
        -1.0,
        -1.0
      ],
      "type": "VEC3"
    },
    {
      "bufferView": 1,
      "byteOffset": 190176,
      "componentType": 5126,
      "count": 1372,
      "max": [
        70.55552673339844,
        18.364219665527344
      ],
      "min": [
        -69.70848846435547,
        -271.3584899902344
      ],
      "type": "VEC2"
    },
    {
      "bufferView": 0,
      "byteOffset": 3506200,
      "componentType": 5125,
      "count": 2760,
      "type": "SCALAR"
    },
    {
      "bufferView": 2,
      "byteOffset": 6712728,
      "componentType": 5126,
      "count": 457,
      "max": [
        280.43560791015625,
        -6405.43505859375,
        397.652587890625
      ],
      "min": [
        -289.8843994140625,
        -6529.97412109375,
        359.3409118652344
      ],
      "type": "VEC3"
    },
    {
      "bufferView": 2,
      "byteOffset": 6718212,
      "componentType": 5126,
      "count": 457,
      "max": [
        1.0,
        1.0,
        1.0
      ],
      "min": [
        -1.0,
        -1.0,
        -1.4325510222512605e-10
      ],
      "type": "VEC3"
    },
    {
      "bufferView": 1,
      "byteOffset": 201152,
      "componentType": 5126,
      "count": 457,
      "max": [
        53.587791442871094,
        8.284427642822266
      ],
      "min": [
        -54.19786071777344,
        -136.04110717773438
      ],
      "type": "VEC2"
    },
    {
      "bufferView": 0,
      "byteOffset": 3517240,
      "componentType": 5125,
      "count": 951,
      "type": "SCALAR"
    },
    {
      "bufferView": 2,
      "byteOffset": 6723696,
      "componentType": 5126,
      "count": 388,
      "max": [
        150.6840057373047,
        -5277.63818359375,
        759.6063232421875
      ],
      "min": [
        -160.13279724121094,
        -5693.908203125,
        670.342529296875
      ],
      "type": "VEC3"
    },
    {
      "bufferView": 2,
      "byteOffset": 6728352,
      "componentType": 5126,
      "count": 388,
      "max": [
        1.0,
        1.0,
        1.0
      ],
      "min": [
        -1.0,
        -1.0,
        -9.679391755343728e-14
      ],
      "type": "VEC3"
    },
    {
      "bufferView": 0,
      "byteOffset": 3521044,
      "componentType": 5125,
      "count": 897,
      "type": "SCALAR"
    },
    {
      "bufferView": 2,
      "byteOffset": 6733008,
      "componentType": 5126,
      "count": 122,
      "max": [
        219.6468963623047,
        -5264.02587890625,
        737.2904052734375
      ],
      "min": [
        -229.095703125,
        -5707.52099609375,
        714.9744262695313
      ],
      "type": "VEC3"
    },
    {
      "bufferView": 2,
      "byteOffset": 6734472,
      "componentType": 5126,
      "count": 122,
      "max": [
        0.3594732880592346,
        0.992587685585022,
        1.0
      ],
      "min": [
        -1.0,
        -0.9331554174423218,
        -1.0
      ],
      "type": "VEC3"
    },
    {
      "bufferView": 1,
      "byteOffset": 204808,
      "componentType": 5126,
      "count": 122,
      "max": [
        266.67559814453125,
        78.61248016357422
      ],
      "min": [
        -267.1080017089844,
        9.485745522397337e-13
      ],
      "type": "VEC2"
    },
    {
      "bufferView": 0,
      "byteOffset": 3524632,
      "componentType": 5125,
      "count": 267,
      "type": "SCALAR"
    },
    {
      "bufferView": 2,
      "byteOffset": 6735936,
      "componentType": 5126,
      "count": 52,
      "max": [
        131.29029846191406,
        -5370.5859375,
        726.1323852539063
      ],
      "min": [
        -140.73910522460938,
        -5602.328125,
        726.1323852539063
      ],
      "type": "VEC3"
    },
    {
      "bufferView": 2,
      "byteOffset": 6736560,
      "componentType": 5126,
      "count": 52,
      "max": [
        8.164128756176468e-15,
        2.452871042943946e-15,
        1.0
      ],
      "min": [
        -8.164128756176468e-15,
        -2.452871042943946e-15,
        -1.0
      ],
      "type": "VEC3"
    },
    {
      "bufferView": 1,
      "byteOffset": 205784,
      "componentType": 5126,
      "count": 52,
      "max": [
        96.16474914550781,
        28.66080093383789
      ],
      "min": [
        93.4805908203125,
        27.195669174194336
      ],
      "type": "VEC2"
    },
    {
      "bufferView": 0,
      "byteOffset": 3525700,
      "componentType": 5125,
      "count": 108,
      "type": "SCALAR"
    },
    {
      "bufferView": 2,
      "byteOffset": 6737184,
      "componentType": 5126,
      "count": 230,
      "max": [
        1.4478100538253784,
        441.3988037109375,
        1448.676025390625
      ],
      "min": [
        -10.89663028717041,
        -1878.89697265625,
        550.450927734375
      ],
      "type": "VEC3"
    },
    {
      "bufferView": 2,
      "byteOffset": 6739944,
      "componentType": 5126,
      "count": 230,
      "max": [
        1.0,
        1.0,
        1.0
      ],
      "min": [
        -1.0,
        -1.0,
        -1.5655230356514949e-07
      ],
      "type": "VEC3"
    },
    {
      "bufferView": 0,
      "byteOffset": 3526132,
      "componentType": 5125,
      "count": 636,
      "type": "SCALAR"
    },
    {
      "bufferView": 2,
      "byteOffset": 6742704,
      "componentType": 5126,
      "count": 592,
      "max": [
        21.46965980529785,
        -6482.30615234375,
        569.509521484375
      ],
      "min": [
        -42.53900146484375,
        -6545.0859375,
        359.3409118652344
      ],
      "type": "VEC3"
    },
    {
      "bufferView": 2,
      "byteOffset": 6749808,
      "componentType": 5126,
      "count": 592,
      "max": [
        1.0,
        0.9940642714500427,
        0.3732635974884033
      ],
      "min": [
        -1.0,
        -0.9940642714500427,
        -0.4065060019493103
      ],
      "type": "VEC3"
    },
    {
      "bufferView": 0,
      "byteOffset": 3528676,
      "componentType": 5125,
      "count": 2088,
      "type": "SCALAR"
    },
    {
      "bufferView": 2,
      "byteOffset": 6756912,
      "componentType": 5126,
      "count": 308,
      "max": [
        5.847750186920166,
        -6482.30615234375,
        569.509521484375
      ],
      "min": [
        -15.331990242004395,
        -6545.0859375,
        359.3409118652344
      ],
      "type": "VEC3"
    },
    {
      "bufferView": 2,
      "byteOffset": 6760608,
      "componentType": 5126,
      "count": 308,
      "max": [
        1.0,
        0.9771206974983215,
        0.4065060019493103
      ],
      "min": [
        -1.0,
        -0.9680191874504089,
        -0.2869518995285034
      ],
      "type": "VEC3"
    },
    {
      "bufferView": 0,
      "byteOffset": 3537028,
      "componentType": 5125,
      "count": 1128,
      "type": "SCALAR"
    },
    {
      "bufferView": 2,
      "byteOffset": 6764304,
      "componentType": 5126,
      "count": 4,
      "max": [
        64.91645812988281,
        -3878.22802734375,
        1167.177978515625
      ],
      "min": [
        -9.448819160461426,
        -3957.508056640625,
        988.9949951171875
      ],
      "type": "VEC3"
    },
    {
      "bufferView": 0,
      "byteOffset": 3541540,
      "componentType": 5125,
      "count": 4,
      "type": "SCALAR"
    },
    {
      "bufferView": 2,
      "byteOffset": 6764352,
      "componentType": 5126,
      "count": 192,
      "max": [
        340.76251220703125,
        -5113.61181640625,
        885.243408203125
      ],
      "min": [
        -350.2113037109375,
        -5574.837890625,
        716.019775390625
      ],
      "type": "VEC3"
    },
    {
      "bufferView": 2,
      "byteOffset": 6766656,
      "componentType": 5126,
      "count": 192,
      "max": [
        1.0,
        1.0,
        7.325884961596058e-14
      ],
      "min": [
        -1.0,
        -1.0,
        -7.423030831503474e-14
      ],
      "type": "VEC3"
    },
    {
      "bufferView": 0,
      "byteOffset": 3541556,
      "componentType": 5125,
      "count": 576,
      "type": "SCALAR"
    },
    {
      "bufferView": 2,
      "byteOffset": 6768960,
      "componentType": 5126,
      "count": 96,
      "max": [
        340.76251220703125,
        -5564.76708984375,
        833.0845947265625
      ],
      "min": [
        -350.2113037109375,
        -5574.837890625,
        716.019775390625
      ],
      "type": "VEC3"
    },
    {
      "bufferView": 0,
      "byteOffset": 3543860,
      "componentType": 5125,
      "count": 288,
      "type": "SCALAR"
    },
    {
      "bufferView": 2,
      "byteOffset": 6770112,
      "componentType": 5126,
      "count": 52,
      "max": [
        414.79119873046875,
        -4950.11279296875,
        889.2196044921875
      ],
      "min": [
        -424.239990234375,
        -5583.30615234375,
        833.0845947265625
      ],
      "type": "VEC3"
    },
    {
      "bufferView": 2,
      "byteOffset": 6770736,
      "componentType": 5126,
      "count": 52,
      "max": [
        0.8653225898742676,
        0.33422303199768066,
        0.9999797940254211
      ],
      "min": [
        -0.8653225898742676,
        -0.33422303199768066,
        -0.9999797940254211
      ],
      "type": "VEC3"
    },
    {
      "bufferView": 0,
      "byteOffset": 3545012,
      "componentType": 5125,
      "count": 156,
      "type": "SCALAR"
    },
    {
      "bufferView": 2,
      "byteOffset": 6771360,
      "componentType": 5126,
      "count": 48,
      "max": [
        181.8199005126953,
        -6424.31884765625,
        389.76849365234375
      ],
      "min": [
        -191.26870727539063,
        -6511.0908203125,
        389.76849365234375
      ],
      "type": "VEC3"
    },
    {
      "bufferView": 2,
      "byteOffset": 6771936,
      "componentType": 5126,
      "count": 48,
      "max": [
        1.145889993847259e-16,
        -1.194662979653316e-10,
        1.0
      ],
      "min": [
        -1.145889993847259e-16,
        -1.194662979653316e-10,
        1.0
      ],
      "type": "VEC3"
    },
    {
      "bufferView": 1,
      "byteOffset": 206200,
      "componentType": 5126,
      "count": 48,
      "max": [
        8.10698127746582,
        -375.7851867675781
      ],
      "min": [
        3.3451220989227295,
        -380.5469970703125
      ],
      "type": "VEC2"
    },
    {
      "bufferView": 0,
      "byteOffset": 3545636,
      "componentType": 5125,
      "count": 132,
      "type": "SCALAR"
    },
    {
      "bufferView": 2,
      "byteOffset": 6772512,
      "componentType": 5126,
      "count": 240,
      "max": [
        181.8199005126953,
        -6424.31884765625,
        401.9518127441406
      ],
      "min": [
        -191.26870727539063,
        -6511.0908203125,
        388.74700927734375
      ],
      "type": "VEC3"
    },
    {
      "bufferView": 2,
      "byteOffset": 6775392,
      "componentType": 5126,
      "count": 240,
      "max": [
        1.0,
        1.0,
        1.0
      ],
      "min": [
        -1.0,
        -1.0,
        -1.4232309775152885e-10
      ],
      "type": "VEC3"
    },
    {
      "bufferView": 0,
      "byteOffset": 3546164,
      "componentType": 5125,
      "count": 708,
      "type": "SCALAR"
    },
    {
      "bufferView": 2,
      "byteOffset": 6778272,
      "componentType": 5126,
      "count": 62,
      "max": [
        558.2677001953125,
        -267.77520751953125,
        714.9744262695313
      ],
      "min": [
        -567.7164916992188,
        -650.5657958984375,
        714.9744262695313
      ],
      "type": "VEC3"
    },
    {
      "bufferView": 2,
      "byteOffset": 6779016,
      "componentType": 5126,
      "count": 62,
      "max": [
        0.0,
        0.0,
        -1.0
      ],
      "min": [
        0.0,
        0.0,
        -1.0
      ],
      "type": "VEC3"
    },
    {
      "bufferView": 1,
      "byteOffset": 206584,
      "componentType": 5126,
      "count": 62,
      "max": [
        14.180000305175781,
        -6.801490783691406
      ],
      "min": [
        -14.420000076293945,
        -16.524370193481445
      ],
      "type": "VEC2"
    },
    {
      "bufferView": 0,
      "byteOffset": 3548996,
      "componentType": 5125,
      "count": 198,
      "type": "SCALAR"
    },
    {
      "bufferView": 2,
      "byteOffset": 6779760,
      "componentType": 5126,
      "count": 8,
      "max": [
        445.43780517578125,
        -269.0177001953125,
        714.9744262695313
      ],
      "min": [
        -454.8865966796875,
        -319.0487976074219,
        647.8942260742188
      ],
      "type": "VEC3"
    },
    {
      "bufferView": 0,
      "byteOffset": 3549788,
      "componentType": 5125,
      "count": 8,
      "type": "SCALAR"
    },
    {
      "bufferView": 2,
      "byteOffset": 6779856,
      "componentType": 5126,
      "count": 20472,
      "max": [
        494.6224670410156,
        -164.1425018310547,
        1080.2333984375
      ],
      "min": [
        -521.9293823242188,
        -6579.5068359375,
        118.51801300048828
      ],
      "type": "VEC3"
    },
    {
      "bufferView": 2,
      "byteOffset": 7025520,
      "componentType": 5126,
      "count": 20472,
      "max": [
        1.0,
        1.0,
        1.0
      ],
      "min": [
        -1.0,
        -1.0,
        -1.0
      ],
      "type": "VEC3"
    },
    {
      "bufferView": 0,
      "byteOffset": 3549820,
      "componentType": 5125,
      "count": 54288,
      "type": "SCALAR"
    },
    {
      "bufferView": 2,
      "byteOffset": 7271184,
      "componentType": 5126,
      "count": 4578,
      "max": [
        494.6224670410156,
        -164.1425018310547,
        1080.2333984375
      ],
      "min": [
        -521.9293823242188,
        -6579.5068359375,
        118.51801300048828
      ],
      "type": "VEC3"
    },
    {
      "bufferView": 0,
      "byteOffset": 3766972,
      "componentType": 5125,
      "count": 13734,
      "type": "SCALAR"
    },
    {
      "bufferView": 2,
      "byteOffset": 7326120,
      "componentType": 5126,
      "count": 1370,
      "max": [
        499.21258544921875,
        420.676513671875,
        26.986040115356445
      ],
      "min": [
        -508.6614074707031,
        -6535.8232421875,
        -291.4024963378906
      ],
      "type": "VEC3"
    },
    {
      "bufferView": 0,
      "byteOffset": 3821908,
      "componentType": 5125,
      "count": 6172,
      "type": "SCALAR"
    },
    {
      "bufferView": 2,
      "byteOffset": 7342560,
      "componentType": 5126,
      "count": 404,
      "max": [
        562.9921264648438,
        -267.68121337890625,
        1405.7939453125
      ],
      "min": [
        -572.44091796875,
        -6543.60107421875,
        -272.5643005371094
      ],
      "type": "VEC3"
    },
    {
      "bufferView": 0,
      "byteOffset": 3846596,
      "componentType": 5125,
      "count": 550,
      "type": "SCALAR"
    },
    {
      "bufferView": 2,
      "byteOffset": 7347408,
      "componentType": 5126,
      "count": 57418,
      "max": [
        562.9921264648438,
        583.4047241210938,
        1478.529052734375
      ],
      "min": [
        -572.44091796875,
        -6592.2060546875,
        -291.4024963378906
      ],
      "type": "VEC3"
    },
    {
      "bufferView": 0,
      "byteOffset": 3848796,
      "componentType": 5125,
      "count": 149550,
      "type": "SCALAR"
    },
    {
      "bufferView": 2,
      "byteOffset": 8036424,
      "componentType": 5126,
      "count": 134,
      "max": [
        414.79119873046875,
        260.5711975097656,
        1140.5810546875
      ],
      "min": [
        -424.239990234375,
        -6541.78515625,
        403.41900634765625
      ],
      "type": "VEC3"
    },
    {
      "bufferView": 0,
      "byteOffset": 4446996,
      "componentType": 5125,
      "count": 214,
      "type": "SCALAR"
    },
    {
      "bufferView": 2,
      "byteOffset": 8038032,
      "componentType": 5126,
      "count": 6240,
      "max": [
        558.2677001953125,
        581.8248291015625,
        1468.925048828125
      ],
      "min": [
        -567.7164916992188,
        -6571.001953125,
        -291.4024963378906
      ],
      "type": "VEC3"
    },
    {
      "bufferView": 0,
      "byteOffset": 4447852,
      "componentType": 5125,
      "count": 17418,
      "type": "SCALAR"
    }
  ],
  "asset": {
    "extras": {
      "author": "Gman The Cruise Dude (https://sketchfab.com/gmanisdabossatbeastmode)",
      "license": "CC-BY-4.0 (http://creativecommons.org/licenses/by/4.0/)",
      "source": "https://sketchfab.com/3d-models/costa-voyager-15368661a7464ca2b0cea582e9c9e54a",
      "title": "Costa Voyager"
    },
    "generator": "Sketchfab-15.17.0",
    "version": "2.0"
  },
  "bufferViews": [
    {
      "buffer": 0,
      "byteLength": 4517524,
      "name": "floatBufferViews",
      "target": 34963
    },
    {
      "buffer": 0,
      "byteLength": 207080,
      "byteOffset": 4517524,
      "byteStride": 8,
      "name": "floatBufferViews",
      "target": 34962
    },
    {
      "buffer": 0,
      "byteLength": 8112912,
      "byteOffset": 4724604,
      "byteStride": 12,
      "name": "floatBufferViews",
      "target": 34962
    }
  ],
  "buffers": [
    {
      "byteLength": 12837516,
      "uri": "scene.bin"
    }
  ],
  "materials": [
    {
      "name": "material",
      "pbrMetallicRoughness": {
        "metallicFactor": 0.0,
        "roughnessFactor": 0.6
      }
    },
    {
      "name": "material_0",
      "pbrMetallicRoughness": {
        "baseColorFactor": [
          0.635294,
          0.717647,
          0.776471,
          1.0
        ],
        "metallicFactor": 0.0,
        "roughnessFactor": 0.6
      }
    },
    {
      "name": "0056_Yellow",
      "pbrMetallicRoughness": {
        "baseColorFactor": [
          1.0,
          1.0,
          0.0,
          1.0
        ],
        "metallicFactor": 0.0,
        "roughnessFactor": 0.6
      }
    },
    {
      "name": "edge_color13900255",
      "pbrMetallicRoughness": {
        "metallicFactor": 0.0,
        "roughnessFactor": 0.6
      }
    },
    {
      "name": "edge_color000255",
      "pbrMetallicRoughness": {
        "metallicFactor": 0.0,
        "roughnessFactor": 0.6
      }
    },
    {
      "name": "edge_color255255255255",
      "pbrMetallicRoughness": {
        "metallicFactor": 0.0,
        "roughnessFactor": 0.6
      }
    },
    {
      "name": "0021_DarkRed",
      "pbrMetallicRoughness": {
        "baseColorFactor": [
          0.545098,
          0.0,
          0.0,
          1.0
        ],
        "metallicFactor": 0.0,
        "roughnessFactor": 0.6
      }
    },
    {
      "name": "edge_color2041530255",
      "pbrMetallicRoughness": {
        "metallicFactor": 0.0,
        "roughnessFactor": 0.6
      }
    },
    {
      "name": "Color_D06",
      "pbrMetallicRoughness": {
        "baseColorFactor": [
          0.8,
          0.6,
          0.0,
          1.0
        ],
        "metallicFactor": 0.0,
        "roughnessFactor": 0.6
      }
    },
    {
      "name": "0089_PaleTurquoise",
      "pbrMetallicRoughness": {
        "baseColorFactor": [
          0.686275,
          0.933333,
          0.933333,
          1.0
        ],
        "metallicFactor": 0.0,
        "roughnessFactor": 0.6
      }
    },
    {
      "name": "Color_M00",
      "pbrMetallicRoughness": {
        "metallicFactor": 0.0,
        "roughnessFactor": 0.6
      }
    },
    {
      "name": "material_1",
      "pbrMetallicRoughness": {
        "baseColorFactor": [
          0.8,
          0.215686,
          0.0,
          1.0
        ],
        "metallicFactor": 0.0,
        "roughnessFactor": 0.6
      }
    },
    {
      "name": "edge_color2552550255",
      "pbrMetallicRoughness": {
        "metallicFactor": 0.0,
        "roughnessFactor": 0.6
      }
    },
    {
      "name": "0024_OrangeRed",
      "pbrMetallicRoughness": {
        "baseColorFactor": [
          1.0,
          0.270588,
          0.0,
          1.0
        ],
        "metallicFactor": 0.0,
        "roughnessFactor": 0.6
      }
    },
    {
      "name": "0136_Charcoal",
      "pbrMetallicRoughness": {
        "baseColorFactor": [
          0.137255,
          0.137255,
          0.137255,
          1.0
        ],
        "metallicFactor": 0.0,
        "roughnessFactor": 0.6
      }
    },
    {
      "name": "0128_White",
      "pbrMetallicRoughness": {
        "metallicFactor": 0.0,
        "roughnessFactor": 0.6
      }
    },
    {
      "name": "edge_color171717255",
      "pbrMetallicRoughness": {
        "metallicFactor": 0.0,
        "roughnessFactor": 0.6
      }
    },
    {
      "name": "LightGray_1",
      "pbrMetallicRoughness": {
        "metallicFactor": 0.0,
        "roughnessFactor": 0.6
      }
    },
    {
      "name": "Color_M08_4",
      "pbrMetallicRoughness": {
        "baseColorFactor": [
          0.0666667,
          0.0666667,
          0.0666667,
          1.0
        ],
        "metallicFactor": 0.0,
        "roughnessFactor": 0.6
      }
    },
    {
      "name": "Color_000",
      "pbrMetallicRoughness": {
        "metallicFactor": 0.0,
        "roughnessFactor": 0.6
      }
    },
    {
      "name": "Yellow",
      "pbrMetallicRoughness": {
        "baseColorFactor": [
          0.952941,
          0.901961,
          0.321569,
          1.0
        ],
        "metallicFactor": 0.0,
        "roughnessFactor": 0.6
      }
    },
    {
      "name": "Color_A08",
      "pbrMetallicRoughness": {
        "baseColorFactor": [
          0.0,
          0.243137,
          0.4,
          1.0
        ],
        "metallicFactor": 0.0,
        "roughnessFactor": 0.6
      }
    },
    {
      "name": "edge_color220220220255",
      "pbrMetallicRoughness": {
        "metallicFactor": 0.0,
        "roughnessFactor": 0.6
      }
    },
    {
      "name": "Gainsboro",
      "pbrMetallicRoughness": {
        "baseColorFactor": [
          0.862745,
          0.862745,
          0.862745,
          1.0
        ],
        "metallicFactor": 0.0,
        "roughnessFactor": 0.6
      }
    },
    {
      "name": "Wood_Veneer_01",
      "pbrMetallicRoughness": {
        "metallicFactor": 0.0,
        "roughnessFactor": 0.6
      }
    },
    {
      "name": "edge_color19814497255",
      "pbrMetallicRoughness": {
        "metallicFactor": 0.0,
        "roughnessFactor": 0.6
      }
    },
    {
      "name": "Wood_Floor_Light",
      "pbrMetallicRoughness": {
        "metallicFactor": 0.0,
        "roughnessFactor": 0.6
      }
    },
    {
      "name": "0046_Gold",
      "pbrMetallicRoughness": {
        "baseColorFactor": [
          1.0,
          0.843137,
          0.0,
          1.0
        ],
        "metallicFactor": 0.0,
        "roughnessFactor": 0.6
      }
    },
    {
      "name": "edge_color1207037255",
      "pbrMetallicRoughness": {
        "metallicFactor": 0.0,
        "roughnessFactor": 0.6
      }
    },
    {
      "name": "edge_color175238238255",
      "pbrMetallicRoughness": {
        "metallicFactor": 0.0,
        "roughnessFactor": 0.6
      }
    },
    {
      "alphaMode": "BLEND",
      "name": "Translucent_Glass_Blue",
      "pbrMetallicRoughness": {
        "baseColorFactor": [
          0.392157,
          0.584314,
          0.929412,
          0.501961
        ],
        "metallicFactor": 0.0,
        "roughnessFactor": 0.6
      }
    },
    {
      "name": "edge_color353535255",
      "pbrMetallicRoughness": {
        "metallicFactor": 0.0,
        "roughnessFactor": 0.6
      }
    },
    {
      "name": "edge_color133138145255",
      "pbrMetallicRoughness": {
        "metallicFactor": 0.0,
        "roughnessFactor": 0.6
      }
    },
    {
      "name": "material_21",
      "pbrMetallicRoughness": {
        "metallicFactor": 0.0,
        "roughnessFactor": 0.6
      }
    },
    {
      "name": "material_34",
      "pbrMetallicRoughness": {
        "baseColorFactor": [
          0.909804,
          0.333333,
          0.32549,
          1.0
        ],
        "metallicFactor": 0.0,
        "roughnessFactor": 0.6
      }
    },
    {
      "name": "material_3",
      "pbrMetallicRoughness": {
        "baseColorFactor": [
          0.737255,
          0.737255,
          0.0,
          1.0
        ],
        "metallicFactor": 0.0,
        "roughnessFactor": 0.6
      }
    },
    {
      "name": "edge_color255248253255",
      "pbrMetallicRoughness": {
        "metallicFactor": 0.0,
        "roughnessFactor": 0.6
      }
    },
    {
      "name": "Color_007_1",
      "pbrMetallicRoughness": {
        "baseColorFactor": [
          0.0,
          0.0,
          0.0,
          1.0
        ],
        "metallicFactor": 0.0,
        "roughnessFactor": 0.6
      }
    },
    {
      "name": "0124_Purple",
      "pbrMetallicRoughness": {
        "baseColorFactor": [
          1.0,
          0.972549,
          0.992157,
          1.0
        ],
        "metallicFactor": 0.0,
        "roughnessFactor": 0.6
      }
    },
    {
      "name": "Color_006_1",
      "pbrMetallicRoughness": {
        "baseColorFactor": [
          0.337255,
          0.337255,
          0.337255,
          1.0
        ],
        "metallicFactor": 0.0,
        "roughnessFactor": 0.6
      }
    },
    {
      "name": "Color_008_1",
      "pbrMetallicRoughness": {
        "baseColorFactor": [
          0.113725,
          0.113725,
          0.113725,
          1.0
        ],
        "metallicFactor": 0.0,
        "roughnessFactor": 0.6
      }
    },
    {
      "name": "Wood_Floor_Light_1",
      "pbrMetallicRoughness": {
        "metallicFactor": 0.0,
        "roughnessFactor": 0.6
      }
    },
    {
      "name": "Carpet_Plush_Charcoal",
      "pbrMetallicRoughness": {
        "metallicFactor": 0.0,
        "roughnessFactor": 0.6
      }
    },
    {
      "name": "edge_color17313661255",
      "pbrMetallicRoughness": {
        "metallicFactor": 0.0,
        "roughnessFactor": 0.6
      }
    },
    {
      "name": "material_2",
      "pbrMetallicRoughness": {
        "metallicFactor": 0.0,
        "roughnessFactor": 0.6
      }
    },
    {
      "name": "Wood_Cherry_Original_6",
      "pbrMetallicRoughness": {
        "metallicFactor": 0.0,
        "roughnessFactor": 0.6
      }
    },
    {
      "name": "Wood_Floor_Dark",
      "pbrMetallicRoughness": {
        "metallicFactor": 0.0,
        "roughnessFactor": 0.6
      }
    },
    {
      "name": "Tile_Limestone_Multi",
      "pbrMetallicRoughness": {
        "baseColorFactor": [
          0.521569,
          0.541176,
          0.568627,
          1.0
        ],
        "metallicFactor": 0.0,
        "roughnessFactor": 0.6
      }
    },
    {
      "name": "Blinds_Cloth_Horizontal",
      "pbrMetallicRoughness": {
        "metallicFactor": 0.0,
        "roughnessFactor": 0.6
      }
    },
    {
      "alphaMode": "BLEND",
      "name": "Water_Pool_Light",
      "pbrMetallicRoughness": {
        "baseColorFactor": [
          1.0,
          1.0,
          1.0,
          0.6
        ],
        "metallicFactor": 0.0,
        "roughnessFactor": 0.6
      }
    },
    {
      "name": "Color_M09_3",
      "pbrMetallicRoughness": {
        "baseColorFactor": [
          0.0,
          0.0,
          0.0,
          1.0
        ],
        "metallicFactor": 0.0,
        "roughnessFactor": 0.6
      }
    },
    {
      "name": "Color_J08_1",
      "pbrMetallicRoughness": {
        "metallicFactor": 0.0,
        "roughnessFactor": 0.6
      }
    },
    {
      "name": "Buff_1",
      "pbrMetallicRoughness": {
        "baseColorFactor": [
          0.886274,
          0.780392,
          0.521569,
          1.0
        ],
        "metallicFactor": 0.0,
        "roughnessFactor": 0.6
      }
    },
    {
      "name": "edge_color2552150255",
      "pbrMetallicRoughness": {
        "metallicFactor": 0.0,
        "roughnessFactor": 0.6
      }
    },
    {
      "name": "Color_000_1",
      "pbrMetallicRoughness": {
        "metallicFactor": 0.0,
        "roughnessFactor": 0.6
      }
    },
    {
      "name": "edge_color1528642255",
      "pbrMetallicRoughness": {
        "metallicFactor": 0.0,
        "roughnessFactor": 0.6
      }
    },
    {
      "name": "0047_Khaki",
      "pbrMetallicRoughness": {
        "baseColorFactor": [
          0.941176,
          0.901961,
          0.54902,
          1.0
        ],
        "metallicFactor": 0.0,
        "roughnessFactor": 0.6
      }
    },
    {
      "name": "Water_Pool_1",
      "pbrMetallicRoughness": {
        "metallicFactor": 0.0,
        "roughnessFactor": 0.6
      }
    },
    {
      "name": "Color_H07_2",
      "pbrMetallicRoughness": {
        "baseColorFactor": [
          0.0,
          0.6,
          0.6,
          1.0
        ],
        "metallicFactor": 0.0,
        "roughnessFactor": 0.6
      }
    },
    {
      "name": "material_6",
      "pbrMetallicRoughness": {
        "metallicFactor": 0.0,
        "roughnessFactor": 0.6
      }
    },
    {
      "name": "edge_color062102255",
      "pbrMetallicRoughness": {
        "metallicFactor": 0.0,
        "roughnessFactor": 0.6
      }
    },
    {
      "name": "0107_MidnightBlue",
      "pbrMetallicRoughness": {
        "baseColorFactor": [
          0.0980392,
          0.0980392,
          0.439216,
          1.0
        ],
        "metallicFactor": 0.0,
        "roughnessFactor": 0.6
      }
    },
    {
      "name": "edge_color2525112255",
      "pbrMetallicRoughness": {
        "metallicFactor": 0.0,
        "roughnessFactor": 0.6
      }
    }
  ],
  "meshes": [
    {
      "name": "Material2",
      "primitives": [
        {
          "attributes": {
            "NORMAL": 1,
            "POSITION": 0
          },
          "indices": 2,
          "material": 0,
          "mode": 4
        }
      ]
    },
    {
      "name": "Material2",
      "primitives": [
        {
          "attributes": {
            "NORMAL": 4,
            "POSITION": 3
          },
          "indices": 5,
          "material": 1,
          "mode": 4
        }
      ]
    },
    {
      "name": "Material3",
      "primitives": [
        {
          "attributes": {
            "NORMAL": 7,
            "POSITION": 6
          },
          "indices": 8,
          "material": 2,
          "mode": 4
        }
      ]
    },
    {
      "name": "Material2",
      "primitives": [
        {
          "attributes": {
            "NORMAL": 10,
            "POSITION": 9
          },
          "indices": 11,
          "material": 6,
          "mode": 4
        }
      ]
    },
    {
      "name": "Material3",
      "primitives": [
        {
          "attributes": {
            "POSITION": 12
          },
          "indices": 13,
          "material": 7,
          "mode": 1
        }
      ]
    },
    {
      "name": "Material2",
      "primitives": [
        {
          "attributes": {
            "NORMAL": 15,
            "POSITION": 14
          },
          "indices": 16,
          "material": 8,
          "mode": 4
        }
      ]
    },
    {
      "name": "Material3",
      "primitives": [
        {
          "attributes": {
            "NORMAL": 18,
            "POSITION": 17
          },
          "indices": 19,
          "material": 9,
          "mode": 4
        }
      ]
    },
    {
      "name": "Material3",
      "primitives": [
        {
          "attributes": {
            "NORMAL": 21,
            "POSITION": 20
          },
          "indices": 22,
          "material": 10,
          "mode": 4
        }
      ]
    },
    {
      "name": "Material4",
      "primitives": [
        {
          "attributes": {
            "NORMAL": 24,
            "POSITION": 23
          },
          "indices": 25,
          "material": 11,
          "mode": 4
        }
      ]
    },
    {
      "name": "Material5",
      "primitives": [
        {
          "attributes": {
            "POSITION": 26
          },
          "indices": 27,
          "material": 12,
          "mode": 1
        }
      ]
    },
    {
      "name": "Material2",
      "primitives": [
        {
          "attributes": {
            "NORMAL": 29,
            "POSITION": 28
          },
          "indices": 30,
          "material": 13,
          "mode": 4
        }
      ]
    },
    {
      "name": "Material3",
      "primitives": [
        {
          "attributes": {
            "NORMAL": 32,
            "POSITION": 31
          },
          "indices": 33,
          "material": 14,
          "mode": 4
        }
      ]
    },
    {
      "name": "Material3",
      "primitives": [
        {
          "attributes": {
            "NORMAL": 35,
            "POSITION": 34
          },
          "indices": 36,
          "material": 15,
          "mode": 4
        }
      ]
    },
    {
      "name": "Material5",
      "primitives": [
        {
          "attributes": {
            "POSITION": 37
          },
          "indices": 38,
          "material": 16,
          "mode": 1
        }
      ]
    },
    {
      "name": "Material3",
      "primitives": [
        {
          "attributes": {
            "NORMAL": 40,
            "POSITION": 39
          },
          "indices": 41,
          "material": 17,
          "mode": 4
        }
      ]
    },
    {
      "name": "Material3",
      "primitives": [
        {
          "attributes": {
            "NORMAL": 43,
            "POSITION": 42
          },
          "indices": 44,
          "material": 18,
          "mode": 4
        }
      ]
    },
    {
      "name": "Material3",
      "primitives": [
        {
          "attributes": {
            "NORMAL": 46,
            "POSITION": 45
          },
          "indices": 47,
          "material": 19,
          "mode": 4
        }
      ]
    },
    {
      "name": "Material3",
      "primitives": [
        {
          "attributes": {
            "NORMAL": 49,
            "POSITION": 48
          },
          "indices": 50,
          "material": 20,
          "mode": 4
        }
      ]
    },
    {
      "name": "Material3",
      "primitives": [
        {
          "attributes": {
            "NORMAL": 52,
            "POSITION": 51
          },
          "indices": 53,
          "material": 21,
          "mode": 4
        }
      ]
    },
    {
      "name": "Material5",
      "primitives": [
        {
          "attributes": {
            "POSITION": 54
          },
          "indices": 55,
          "material": 22,
          "mode": 1
        }
      ]
    },
    {
      "name": "Material3",
      "primitives": [
        {
          "attributes": {
            "NORMAL": 57,
            "POSITION": 56
          },
          "indices": 58,
          "material": 23,
          "mode": 4
        }
      ]
    },
    {
      "name": "Material2",
      "primitives": [
        {
          "attributes": {
            "NORMAL": 60,
            "POSITION": 59,
            "TEXCOORD_0": 61
          },
          "indices": 62,
          "material": 24,
          "mode": 4
        }
      ]
    },
    {
      "name": "Material8",
      "primitives": [
        {
          "attributes": {
            "POSITION": 63
          },
          "indices": 64,
          "material": 25,
          "mode": 1
        }
      ]
    },
    {
      "name": "Material3",
      "primitives": [
        {
          "attributes": {
            "NORMAL": 66,
            "POSITION": 65,
            "TEXCOORD_0": 67
          },
          "indices": 68,
          "material": 26,
          "mode": 4
        }
      ]
    },
    {
      "name": "Material3",
      "primitives": [
        {
          "attributes": {
            "NORMAL": 70,
            "POSITION": 69
          },
          "indices": 71,
          "material": 27,
          "mode": 4
        }
      ]
    },
    {
      "name": "Material6",
      "primitives": [
        {
          "attributes": {
            "POSITION": 72
          },
          "indices": 73,
          "material": 28,
          "mode": 1
        }
      ]
    },
    {
      "name": "Material5",
      "primitives": [
        {
          "attributes": {
            "POSITION": 74
          },
          "indices": 75,
          "material": 29,
          "mode": 1
        }
      ]
    },
    {
      "name": "Material3",
      "primitives": [
        {
          "attributes": {
            "NORMAL": 77,
            "POSITION": 76
          },
          "indices": 78,
          "material": 30,
          "mode": 4
        }
      ]
    },
    {
      "name": "Material5",
      "primitives": [
        {
          "attributes": {
            "POSITION": 79
          },
          "indices": 80,
          "material": 31,
          "mode": 1
        }
      ]
    },
    {
      "name": "Material6",
      "primitives": [
        {
          "attributes": {
            "POSITION": 81
          },
          "indices": 82,
          "material": 32,
          "mode": 1
        }
      ]
    },
    {
      "name": "Material3",
      "primitives": [
        {
          "attributes": {
            "NORMAL": 84,
            "POSITION": 83,
            "TEXCOORD_0": 85
          },
          "indices": 86,
          "material": 33,
          "mode": 4
        }
      ]
    },
    {
      "name": "Material3",
      "primitives": [
        {
          "attributes": {
            "NORMAL": 88,
            "POSITION": 87
          },
          "indices": 89,
          "material": 34,
          "mode": 4
        }
      ]
    },
    {
      "name": "Material3",
      "primitives": [
        {
          "attributes": {
            "NORMAL": 91,
            "POSITION": 90
          },
          "indices": 92,
          "material": 35,
          "mode": 4
        }
      ]
    },
    {
      "name": "Material4",
      "primitives": [
        {
          "attributes": {
            "POSITION": 93
          },
          "indices": 94,
          "material": 36,
          "mode": 1
        }
      ]
    },
    {
      "name": "Material2",
      "primitives": [
        {
          "attributes": {
            "NORMAL": 96,
            "POSITION": 95
          },
          "indices": 97,
          "material": 37,
          "mode": 4
        }
      ]
    },
    {
      "name": "Material2",
      "primitives": [
        {
          "attributes": {
            "NORMAL": 99,
            "POSITION": 98
          },
          "indices": 100,
          "material": 38,
          "mode": 4
        }
      ]
    },
    {
      "name": "Material3",
      "primitives": [
        {
          "attributes": {
            "NORMAL": 102,
            "POSITION": 101
          },
          "indices": 103,
          "material": 39,
          "mode": 4
        }
      ]
    },
    {
      "name": "Material3",
      "primitives": [
        {
          "attributes": {
            "NORMAL": 105,
            "POSITION": 104
          },
          "indices": 106,
          "material": 40,
          "mode": 4
        }
      ]
    },
    {
      "name": "Material3",
      "primitives": [
        {
          "attributes": {
            "NORMAL": 108,
            "POSITION": 107,
            "TEXCOORD_0": 109
          },
          "indices": 110,
          "material": 41,
          "mode": 4
        }
      ]
    },
    {
      "name": "Material3",
      "primitives": [
        {
          "attributes": {
            "NORMAL": 112,
            "POSITION": 111,
            "TEXCOORD_0": 113
          },
          "indices": 114,
          "material": 42,
          "mode": 4
        }
      ]
    },
    {
      "name": "Material3",
      "primitives": [
        {
          "attributes": {
            "POSITION": 115
          },
          "indices": 116,
          "material": 43,
          "mode": 1
        }
      ]
    },
    {
      "name": "Material2",
      "primitives": [
        {
          "attributes": {
            "NORMAL": 118,
            "POSITION": 117,
            "TEXCOORD_0": 119
          },
          "indices": 120,
          "material": 44,
          "mode": 4
        }
      ]
    },
    {
      "name": "Material3",
      "primitives": [
        {
          "attributes": {
            "NORMAL": 122,
            "POSITION": 121,
            "TEXCOORD_0": 123
          },
          "indices": 124,
          "material": 45,
          "mode": 4
        }
      ]
    },
    {
      "name": "Material3",
      "primitives": [
        {
          "attributes": {
            "NORMAL": 126,
            "POSITION": 125,
            "TEXCOORD_0": 127
          },
          "indices": 128,
          "material": 46,
          "mode": 4
        }
      ]
    },
    {
      "name": "Material3",
      "primitives": [
        {
          "attributes": {
            "NORMAL": 130,
            "POSITION": 129
          },
          "indices": 131,
          "material": 47,
          "mode": 4
        }
      ]
    },
    {
      "name": "Material3",
      "primitives": [
        {
          "attributes": {
            "NORMAL": 133,
            "POSITION": 132,
            "TEXCOORD_0": 134
          },
          "indices": 135,
          "material": 48,
          "mode": 4
        }
      ]
    },
    {
      "name": "Material2",
      "primitives": [
        {
          "attributes": {
            "NORMAL": 137,
            "POSITION": 136,
            "TEXCOORD_0": 138
          },
          "indices": 139,
          "material": 49,
          "mode": 4
        }
      ]
    },
    {
      "name": "Material3",
      "primitives": [
        {
          "attributes": {
            "NORMAL": 141,
            "POSITION": 140
          },
          "indices": 142,
          "material": 50,
          "mode": 4
        }
      ]
    },
    {
      "name": "Material2",
      "primitives": [
        {
          "attributes": {
            "NORMAL": 144,
            "POSITION": 143
          },
          "indices": 145,
          "material": 51,
          "mode": 4
        }
      ]
    },
    {
      "name": "Material3",
      "primitives": [
        {
          "attributes": {
            "NORMAL": 147,
            "POSITION": 146
          },
          "indices": 148,
          "material": 52,
          "mode": 4
        }
      ]
    },
    {
      "name": "Material4",
      "primitives": [
        {
          "attributes": {
            "POSITION": 149
          },
          "indices": 150,
          "material": 53,
          "mode": 1
        }
      ]
    },
    {
      "name": "Material3",
      "primitives": [
        {
          "attributes": {
            "NORMAL": 152,
            "POSITION": 151
          },
          "indices": 153,
          "material": 54,
          "mode": 4
        }
      ]
    },
    {
      "name": "Material4",
      "primitives": [
        {
          "attributes": {
            "POSITION": 154
          },
          "indices": 155,
          "material": 55,
          "mode": 1
        }
      ]
    },
    {
      "name": "Material2",
      "primitives": [
        {
          "attributes": {
            "NORMAL": 157,
            "POSITION": 156
          },
          "indices": 158,
          "material": 56,
          "mode": 4
        }
      ]
    },
    {
      "name": "Material3",
      "primitives": [
        {
          "attributes": {
            "NORMAL": 160,
            "POSITION": 159,
            "TEXCOORD_0": 161
          },
          "indices": 162,
          "material": 57,
          "mode": 4
        }
      ]
    },
    {
      "name": "Material3",
      "primitives": [
        {
          "attributes": {
            "NORMAL": 164,
            "POSITION": 163
          },
          "indices": 165,
          "material": 58,
          "mode": 4
        }
      ]
    },
    {
      "name": "Material3",
      "primitives": [
        {
          "attributes": {
            "NORMAL": 167,
            "POSITION": 166,
            "TEXCOORD_0": 168
          },
          "indices": 169,
          "material": 59,
          "mode": 4
        }
      ]
    },
    {
      "name": "Material3",
      "primitives": [
        {
          "attributes": {
            "POSITION": 170
          },
          "indices": 171,
          "material": 60,
          "mode": 1
        }
      ]
    },
    {
      "name": "Material2",
      "primitives": [
        {
          "attributes": {
            "NORMAL": 173,
            "POSITION": 172
          },
          "indices": 174,
          "material": 61,
          "mode": 4
        }
      ]
    },
    {
      "name": "Material3",
      "primitives": [
        {
          "attributes": {
            "POSITION": 175
          },
          "indices": 176,
          "material": 62,
          "mode": 1
        }
      ]
    },
    {
      "name": "Material2",
      "primitives": [
        {
          "attributes": {
            "POSITION": 177
          },
          "indices": 178,
          "material": 3,
          "mode": 1
        }
      ]
    },
    {
      "name": "Material2",
      "primitives": [
        {
          "attributes": {
            "POSITION": 179
          },
          "indices": 180,
          "material": 4,
          "mode": 1
        }
      ]
    },
    {
      "name": "Material4",
      "primitives": [
        {
          "attributes": {
            "POSITION": 181
          },
          "indices": 182,
          "material": 4,
          "mode": 1
        }
      ]
    },
    {
      "name": "Material2",
      "primitives": [
        {
          "attributes": {
            "POSITION": 183
          },
          "indices": 184,
          "material": 5,
          "mode": 1
        }
      ]
    },
    {
      "name": "Material5",
      "primitives": [
        {
          "attributes": {
            "POSITION": 185
          },
          "indices": 186,
          "material": 5,
          "mode": 1
        }
      ]
    }
  ],
  "nodes": [
    {
      "children": [
        1
      ],
      "matrix": [
        1.0,
        0.0,
        0.0,
        0.0,
        0.0,
        2.220446049250313e-16,
        -1.0,
        0.0,
        0.0,
        1.0,
        2.220446049250313e-16,
        0.0,
        0.0,
        0.0,
        0.0,
        1.0
      ],
      "name": "Sketchfab_model"
    },
    {
      "children": [
        2,
        3,
        4,
        5,
        6,
        7,
        8,
        9,
        10,
        11,
        12,
        13,
        14,
        15,
        16,
        17,
        18,
        19,
        20,
        21,
        22,
        23,
        24,
        25,
        26,
        27,
        28,
        29,
        30,
        31,
        32,
        33,
        34,
        35,
        36,
        37,
        38,
        39,
        40,
        41,
        42,
        43,
        44,
        45,
        46,
        47,
        48,
        49,
        50,
        51,
        52,
        53,
        54,
        55,
        56,
        57,
        58,
        59,
        60,
        61,
        62,
        63,
        64,
        65,
        66,
        67
      ],
      "name": "Collada visual scene group"
    },
    {
      "mesh": 0,
      "name": "Material2"
    },
    {
      "mesh": 1,
      "name": "Material2"
    },
    {
      "mesh": 2,
      "name": "Material3"
    },
    {
      "mesh": 3,
      "name": "Material2"
    },
    {
      "mesh": 4,
      "name": "Material3"
    },
    {
      "mesh": 5,
      "name": "Material2"
    },
    {
      "mesh": 6,
      "name": "Material3"
    },
    {
      "mesh": 7,
      "name": "Material3"
    },
    {
      "mesh": 8,
      "name": "Material4"
    },
    {
      "mesh": 9,
      "name": "Material5"
    },
    {
      "mesh": 10,
      "name": "Material2"
    },
    {
      "mesh": 11,
      "name": "Material3"
    },
    {
      "mesh": 12,
      "name": "Material3"
    },
    {
      "mesh": 13,
      "name": "Material5"
    },
    {
      "mesh": 14,
      "name": "Material3"
    },
    {
      "mesh": 15,
      "name": "Material3"
    },
    {
      "mesh": 16,
      "name": "Material3"
    },
    {
      "mesh": 17,
      "name": "Material3"
    },
    {
      "mesh": 18,
      "name": "Material3"
    },
    {
      "mesh": 19,
      "name": "Material5"
    },
    {
      "mesh": 20,
      "name": "Material3"
    },
    {
      "mesh": 21,
      "name": "Material2"
    },
    {
      "mesh": 22,
      "name": "Material8"
    },
    {
      "mesh": 23,
      "name": "Material3"
    },
    {
      "mesh": 24,
      "name": "Material3"
    },
    {
      "mesh": 25,
      "name": "Material6"
    },
    {
      "mesh": 26,
      "name": "Material5"
    },
    {
      "mesh": 27,
      "name": "Material3"
    },
    {
      "mesh": 28,
      "name": "Material5"
    },
    {
      "mesh": 29,
      "name": "Material6"
    },
    {
      "mesh": 30,
      "name": "Material3"
    },
    {
      "mesh": 31,
      "name": "Material3"
    },
    {
      "mesh": 32,
      "name": "Material3"
    },
    {
      "mesh": 33,
      "name": "Material4"
    },
    {
      "mesh": 34,
      "name": "Material2"
    },
    {
      "mesh": 35,
      "name": "Material2"
    },
    {
      "mesh": 36,
      "name": "Material3"
    },
    {
      "mesh": 37,
      "name": "Material3"
    },
    {
      "mesh": 38,
      "name": "Material3"
    },
    {
      "mesh": 39,
      "name": "Material3"
    },
    {
      "mesh": 40,
      "name": "Material3"
    },
    {
      "mesh": 41,
      "name": "Material2"
    },
    {
      "mesh": 42,
      "name": "Material3"
    },
    {
      "mesh": 43,
      "name": "Material3"
    },
    {
      "mesh": 44,
      "name": "Material3"
    },
    {
      "mesh": 45,
      "name": "Material3"
    },
    {
      "mesh": 46,
      "name": "Material2"
    },
    {
      "mesh": 47,
      "name": "Material3"
    },
    {
      "mesh": 48,
      "name": "Material2"
    },
    {
      "mesh": 49,
      "name": "Material3"
    },
    {
      "mesh": 50,
      "name": "Material4"
    },
    {
      "mesh": 51,
      "name": "Material3"
    },
    {
      "mesh": 52,
      "name": "Material4"
    },
    {
      "mesh": 53,
      "name": "Material2"
    },
    {
      "mesh": 54,
      "name": "Material3"
    },
    {
      "mesh": 55,
      "name": "Material3"
    },
    {
      "mesh": 56,
      "name": "Material3"
    },
    {
      "mesh": 57,
      "name": "Material3"
    },
    {
      "mesh": 58,
      "name": "Material2"
    },
    {
      "mesh": 59,
      "name": "Material3"
    },
    {
      "mesh": 60,
      "name": "Material2"
    },
    {
      "mesh": 61,
      "name": "Material2"
    },
    {
      "mesh": 62,
      "name": "Material4"
    },
    {
      "mesh": 63,
      "name": "Material2"
    },
    {
      "mesh": 64,
      "name": "Material5"
    },
    {
      "children": [
        68
      ],
      "name": "SketchUp"
    },
    {
      "children": [
        69
      ],
      "matrix": [
        -0.631295,
        0.7755427,
        3.469447e-18,
        0.0,
        -0.009739473,
        -0.007927972,
        0.9999211,
        0.0,
        0.7754816,
        0.6312453,
        0.01255827,
        0.0,
        4077.827,
        1212.808,
        327.724,
        1.0
      ],
      "name": "skp_camera_Last_Saved_SketchUp_View"
    },
    {
      "name": "ID1"
    }
  ],
  "scene": 0,
  "scenes": [
    {
      "name": "Sketchfab_Scene",
      "nodes": [
        0
      ]
    }
  ]
}
